<svg width="35" height="35" viewBox="0 0 35 35" fill="none" xmlns="http://www.w3.org/2000/svg">
<path d="M10.2084 20.4168C10.2084 19.6114 10.8613 18.9585 11.6667 18.9585C12.4721 18.9585 13.125 19.6114 13.125 20.4168C13.125 21.2223 12.4721 21.8752 11.6667 21.8752C10.8613 21.8752 10.2084 21.2223 10.2084 20.4168Z" fill="#E9AB72"/>
<path d="M11.6667 24.7915C10.8613 24.7915 10.2084 25.4444 10.2084 26.2498C10.2084 27.0553 10.8613 27.7082 11.6667 27.7082C12.4721 27.7082 13.125 27.0553 13.125 26.2498C13.125 25.4444 12.4721 24.7915 11.6667 24.7915Z" fill="#E9AB72"/>
<path d="M16.0416 20.4168C16.0416 19.6114 16.6945 18.9585 17.5 18.9585C18.3054 18.9585 18.9583 19.6114 18.9583 20.4168C18.9583 21.2223 18.3054 21.8752 17.5 21.8752C16.6945 21.8752 16.0416 21.2223 16.0416 20.4168Z" fill="#E9AB72"/>
<path d="M17.5 24.7915C16.6945 24.7915 16.0416 25.4444 16.0416 26.2498C16.0416 27.0553 16.6945 27.7082 17.5 27.7082C18.3054 27.7082 18.9583 27.0553 18.9583 26.2498C18.9583 25.4444 18.3054 24.7915 17.5 24.7915Z" fill="#E9AB72"/>
<path d="M21.875 20.4168C21.875 19.6114 22.5279 18.9585 23.3333 18.9585C24.1388 18.9585 24.7917 19.6114 24.7917 20.4168C24.7917 21.2223 24.1388 21.8752 23.3333 21.8752C22.5279 21.8752 21.875 21.2223 21.875 20.4168Z" fill="#E9AB72"/>
<path d="M23.3333 24.7915C22.5279 24.7915 21.875 25.4444 21.875 26.2498C21.875 27.0553 22.5279 27.7082 23.3333 27.7082C24.1388 27.7082 24.7917 27.0553 24.7917 26.2498C24.7917 25.4444 24.1388 24.7915 23.3333 24.7915Z" fill="#E9AB72"/>
<path fill-rule="evenodd" clip-rule="evenodd" d="M8.74996 2.91683C8.74996 2.11142 9.40288 1.4585 10.2083 1.4585C11.0137 1.4585 11.6666 2.11142 11.6666 2.91683V4.37516H23.3333V2.91683C23.3333 2.11142 23.9862 1.4585 24.7916 1.4585C25.5971 1.4585 26.25 2.11142 26.25 2.91683V4.37516H27.7083C30.1246 4.37516 32.0833 6.33392 32.0833 8.75016V29.1668C32.0833 31.5831 30.1246 33.5418 27.7083 33.5418H7.29163C4.87539 33.5418 2.91663 31.5831 2.91663 29.1668V8.75016C2.91663 6.33392 4.87539 4.37516 7.29163 4.37516H8.74996V2.91683ZM23.3333 7.29183V8.75016C23.3333 9.55557 23.9862 10.2085 24.7916 10.2085C25.5971 10.2085 26.25 9.55557 26.25 8.75016V7.29183H27.7083C28.5137 7.29183 29.1666 7.94475 29.1666 8.75016V13.1252H5.83329V8.75016C5.83329 7.94475 6.48622 7.29183 7.29163 7.29183H8.74996V8.75016C8.74996 9.55557 9.40288 10.2085 10.2083 10.2085C11.0137 10.2085 11.6666 9.55557 11.6666 8.75016V7.29183H23.3333ZM5.83329 16.0418V29.1668C5.83329 29.9723 6.48622 30.6252 7.29163 30.6252H27.7083C28.5137 30.6252 29.1666 29.9723 29.1666 29.1668V16.0418H5.83329Z" fill="#E9AB72"/>
</svg>
