<svg width="45" height="45" viewBox="0 0 45 45" fill="none" xmlns="http://www.w3.org/2000/svg">
<path fill-rule="evenodd" clip-rule="evenodd" d="M14.2471 8.41249C14.7473 5.95646 16.9329 4.21875 19.4368 4.21875H25.5632C28.0671 4.21875 30.2526 5.95646 30.753 8.41249C30.8685 8.97945 31.3821 9.39536 31.9162 9.39536H31.947L31.9778 9.39669C34.6091 9.51176 36.6304 9.83469 38.3179 10.9417C39.381 11.6392 40.2954 12.5366 41.0081 13.5837C41.8948 14.8865 42.2857 16.3818 42.4732 18.1902C42.6562 19.9571 42.6562 22.1719 42.6562 24.9771V25.1366C42.6562 27.9418 42.6562 30.1566 42.4732 31.9234C42.2857 33.7318 41.8948 35.2271 41.0081 36.5299C40.2954 37.5771 39.381 38.4744 38.3179 39.1719C36.9988 40.0373 35.4866 40.4188 33.6525 40.602C31.8568 40.7812 29.6044 40.7812 26.7439 40.7812H18.2561C15.3956 40.7812 13.1431 40.7812 11.3474 40.602C9.51336 40.4188 8.00121 40.0373 6.68222 39.1719C5.61904 38.4744 4.70447 37.5771 3.99186 36.5299C3.10523 35.2271 2.71418 33.7318 2.52679 31.9234C2.34371 30.1566 2.34373 27.9418 2.34375 25.1366V24.9771C2.34373 22.1719 2.34371 19.9571 2.52679 18.1902C2.71418 16.3818 3.10523 14.8865 3.99186 13.5837C4.70447 12.5366 5.61904 11.6392 6.68222 10.9417C8.36968 9.83469 10.3909 9.51176 13.0223 9.39669L13.053 9.39536H13.0838C13.6179 9.39536 14.1316 8.97947 14.2471 8.41249ZM19.4368 7.03125C18.2348 7.03125 17.2295 7.86186 17.003 8.97388C16.6361 10.7749 15.0394 12.191 13.1181 12.2077C10.5895 12.32 9.23505 12.6307 8.22495 13.2933C7.46829 13.7897 6.82035 14.4264 6.31699 15.1661C5.79921 15.9269 5.48805 16.8998 5.32431 18.4801C5.15801 20.0852 5.15625 22.1542 5.15625 25.0567C5.15625 27.9594 5.15801 30.0285 5.32431 31.6335C5.48805 33.2138 5.79921 34.1867 6.31699 34.9476C6.82035 35.6873 7.46829 36.324 8.22495 36.8203C9.00782 37.3339 10.0096 37.6418 11.6269 37.8034C13.2665 37.9671 15.3786 37.9688 18.3333 37.9688H26.6666C29.6214 37.9688 31.7334 37.9671 33.3731 37.8034C34.9905 37.6418 35.9921 37.3339 36.7751 36.8203C37.5317 36.324 38.1797 35.6873 38.6829 34.9476C39.2008 34.1867 39.5119 33.2138 39.6758 31.6335C39.8421 30.0285 39.8438 27.9594 39.8438 25.0567C39.8438 22.1542 39.8421 20.0852 39.6758 18.4801C39.5119 16.8998 39.2008 15.9269 38.6829 15.1661C38.1797 14.4264 37.5317 13.7897 36.7751 13.2933C35.7649 12.6307 34.4106 12.32 31.8819 12.2077C29.9606 12.191 28.3639 10.7749 27.9971 8.97388C27.7704 7.86186 26.7653 7.03125 25.5632 7.03125H19.4368ZM22.5 20.1562C20.1701 20.1562 18.2812 22.0451 18.2812 24.375C18.2812 26.7049 20.1701 28.5938 22.5 28.5938C24.8299 28.5938 26.7188 26.7049 26.7188 24.375C26.7188 22.0451 24.8299 20.1562 22.5 20.1562ZM15.4688 24.375C15.4688 20.4917 18.6167 17.3438 22.5 17.3438C26.3833 17.3438 29.5312 20.4917 29.5312 24.375C29.5312 28.2583 26.3833 31.4062 22.5 31.4062C18.6167 31.4062 15.4688 28.2583 15.4688 24.375ZM32.3438 18.75C32.3438 17.9734 32.9734 17.3438 33.75 17.3438H35.625C36.4016 17.3438 37.0312 17.9734 37.0312 18.75C37.0312 19.5266 36.4016 20.1562 35.625 20.1562H33.75C32.9734 20.1562 32.3438 19.5266 32.3438 18.75Z" fill="#E9AB72"/>
</svg>
