<svg width="50" height="50" viewBox="0 0 50 50" fill="none" xmlns="http://www.w3.org/2000/svg">
<path d="M29.5434 8.90727C30.377 9.1306 30.8718 9.98739 30.6484 10.8209L22.3701 41.7162C22.1466 42.5498 21.2899 43.0444 20.4563 42.821C19.6228 42.5977 19.1281 41.7408 19.3515 40.9073L27.6299 10.0121C27.8532 9.17858 28.7099 8.68391 29.5434 8.90727Z" fill="#E9AB72"/>
<path d="M34.2551 15.2663C34.8324 14.6249 35.8203 14.5729 36.4618 15.1501L40.0815 18.4079C41.6157 19.7885 42.8882 20.9338 43.762 21.9723C44.6807 23.0646 45.3338 24.2379 45.3338 25.6865C45.3338 27.135 44.6807 28.3085 43.762 29.4006C42.8882 30.4394 41.6157 31.5846 40.0815 32.9652L36.4618 36.2229C35.8203 36.8002 34.8324 36.7481 34.2551 36.1069C33.6778 35.4654 33.7299 34.4775 34.3713 33.9002L37.9055 30.7192C39.547 29.2421 40.6536 28.2413 41.3705 27.389C42.0586 26.571 42.2088 26.0938 42.2088 25.6865C42.2088 25.2794 42.0586 24.8019 41.3705 23.984C40.6536 23.1319 39.547 22.131 37.9055 20.6538L34.3713 17.4729C33.7299 16.8957 33.6778 15.9077 34.2551 15.2663Z" fill="#E9AB72"/>
<path d="M15.6288 17.4729C16.2702 16.8957 16.3222 15.9077 15.7449 15.2663C15.1677 14.6249 14.1797 14.5729 13.5383 15.1501L9.91853 18.4079C8.38449 19.7885 7.11197 20.9338 6.2382 21.9723C5.31939 23.0646 4.66626 24.2379 4.66626 25.6865C4.66626 27.135 5.31939 28.3085 6.2382 29.4006C7.11197 30.4394 8.38447 31.5846 9.91849 32.965L13.5383 36.2229C14.1797 36.8002 15.1677 36.7481 15.7449 36.1069C16.3222 35.4654 16.2702 34.4775 15.6288 33.9002L12.0945 30.7192C10.4531 29.2421 9.34643 28.2413 8.62955 27.389C7.94153 26.571 7.79126 26.0938 7.79126 25.6865C7.79126 25.2794 7.94153 24.8019 8.62955 23.984C9.34643 23.1319 10.4531 22.131 12.0945 20.6538L15.6288 17.4729Z" fill="#E9AB72"/>
</svg>
