<svg width="40" height="40" viewBox="0 0 40 40" fill="none" xmlns="http://www.w3.org/2000/svg">
<path fill-rule="evenodd" clip-rule="evenodd" d="M24.5944 4.36906C27.642 1.3214 32.5834 1.3214 35.631 4.36906C38.6787 7.41673 38.6787 12.358 35.631 15.4056L19.8222 31.2145C18.919 32.1176 18.3872 32.6495 17.7957 33.1108C17.0987 33.6545 16.3443 34.1208 15.5461 34.5011C14.869 34.8238 14.1556 35.0616 12.9438 35.4655L7.39189 37.3161L6.05509 37.7618C4.97082 38.1231 3.77541 37.841 2.96724 37.0328C2.15907 36.2246 1.87687 35.0291 2.23831 33.945L4.53451 27.0563C4.93842 25.8445 5.17617 25.1311 5.49891 24.454C5.87929 23.6558 6.34549 22.9015 6.88927 22.2043C7.35062 21.6128 7.88236 21.0811 8.78566 20.1778L24.5944 4.36906ZM7.33422 34.7001L12.0701 33.1215C13.3886 32.682 13.9488 32.493 14.4706 32.2443C15.1048 31.9421 15.7042 31.5716 16.2582 31.1395C16.714 30.784 17.1335 30.3675 18.1164 29.3846L30.7322 16.769C29.4177 16.3053 27.7244 15.446 26.1392 13.8608C24.554 12.2756 23.6947 10.5823 23.2312 9.26789L10.6153 21.8836C9.63256 22.8665 9.21602 23.286 8.86054 23.7418C8.42844 24.2958 8.05797 24.8951 7.75572 25.5295C7.50706 26.0511 7.31804 26.6115 6.87852 27.93L5.29991 32.6658L7.33422 34.7001ZM25.259 7.24005C25.316 7.53164 25.4124 7.92805 25.573 8.39143C25.935 9.4347 26.6187 10.8048 27.907 12.0931C29.1952 13.3813 30.5654 14.065 31.6085 14.427C32.072 14.5877 32.4684 14.6841 32.76 14.7411L33.8632 13.6378C35.9345 11.5665 35.9345 8.20818 33.8632 6.13683C31.7919 4.06548 28.4335 4.06548 26.3622 6.13683L25.259 7.24005Z" fill="#E9AB72"/>
</svg>
