<svg width="163" height="37" viewBox="0 0 163 37" fill="none" xmlns="http://www.w3.org/2000/svg">
<path d="M50.6208 2.32311C48.0857 4.09519 46.9523 6.40036 44.2569 13.1137C42.6426 17.1321 40.7189 22.1101 38.6535 27.8822C36.9348 24.9815 34.9141 21.9006 32.5915 18.7351C33.3819 17.6762 34.2393 16.5917 35.1639 15.4887C36.8155 13.5181 38.4521 11.7718 40.0105 10.2386C39.2574 9.42981 38.5043 8.6173 37.7475 7.80479C36.9907 6.99228 36.3122 6.27168 35.4584 5.36726C34.3512 4.19445 32.681 2.4334 30.5075 0.146608C30.5075 0.190726 30.5075 0.231168 30.5075 0.275286V0.146608C28.3302 2.42972 26.66 4.19078 25.5527 5.36726C24.699 6.27168 24.0205 6.99228 23.2637 7.80479C22.5068 8.6173 21.75 9.42981 21.0007 10.2386C22.559 11.7754 24.1957 13.5218 25.8473 15.4887C26.7719 16.5917 27.6256 17.6762 28.4197 18.7351C26.0971 21.9042 24.0764 24.9852 22.3577 27.8822C20.2923 22.1064 18.3686 17.1321 16.7543 13.1137C14.0551 6.39669 12.9255 4.09519 10.3904 2.32311C6.79269 -0.184279 2.52769 -0.147514 0 0.124548C0.499572 0.462788 1.25266 1.00324 2.09522 1.74589C5.77118 4.96652 7.45257 8.56215 8.98112 11.9923C11.6728 18.0402 12.6944 20.8197 14.249 24.43C15.4718 27.2683 17.3098 31.2757 19.8822 36H21.8544C24.7288 31.2352 27.6032 26.4705 30.4776 21.7094C30.4851 21.6983 30.4925 21.6873 30.5 21.68C30.5075 21.691 30.5149 21.702 30.5224 21.7094C33.3968 26.4741 36.2712 31.2389 39.1456 36H41.1178C43.6902 31.2757 45.5282 27.2683 46.751 24.43C48.3056 20.8197 49.3309 18.0439 52.0189 11.9923C53.5437 8.56215 55.2251 4.96652 58.9048 1.74589C59.7511 1.00324 60.5042 0.462788 61 0.124548C58.4723 -0.147514 54.2073 -0.187955 50.6246 2.31943L50.6208 2.32311ZM30.5 5.72021C32.0099 7.31949 33.5235 8.91878 35.0334 10.5181C33.5422 12.1946 32.0248 14.0144 30.5 15.9593C28.9789 14.0144 27.4578 12.1946 25.9666 10.5181C27.4765 8.91878 28.9901 7.31949 30.5 5.72021Z" fill="black"/>
<path d="M50.6208 2.32311C48.0857 4.09519 46.9523 6.40036 44.2569 13.1137C42.6426 17.1321 40.7189 22.1101 38.6535 27.8822C36.9348 24.9815 34.9141 21.9006 32.5915 18.7351C33.3819 17.6762 34.2393 16.5917 35.1639 15.4887C36.8155 13.5181 38.4521 11.7718 40.0105 10.2386C39.2574 9.42981 38.5043 8.6173 37.7475 7.80479C36.9907 6.99228 36.3122 6.27168 35.4584 5.36726C34.3512 4.19445 32.681 2.4334 30.5075 0.146608C30.5075 0.190726 30.5075 0.231168 30.5075 0.275286V0.146608C28.3302 2.42972 26.66 4.19078 25.5527 5.36726C24.699 6.27168 24.0205 6.99228 23.2637 7.80479C22.5068 8.6173 21.75 9.42981 21.0007 10.2386C22.559 11.7754 24.1957 13.5218 25.8473 15.4887C26.7719 16.5917 27.6256 17.6762 28.4197 18.7351C26.0971 21.9042 24.0764 24.9852 22.3577 27.8822C20.2923 22.1064 18.3686 17.1321 16.7543 13.1137C14.0551 6.39669 12.9255 4.09519 10.3904 2.32311C6.79269 -0.184279 2.52769 -0.147514 0 0.124548C0.499572 0.462788 1.25266 1.00324 2.09522 1.74589C5.77118 4.96652 7.45257 8.56215 8.98112 11.9923C11.6728 18.0402 12.6944 20.8197 14.249 24.43C15.4718 27.2683 17.3098 31.2757 19.8822 36H21.8544C24.7288 31.2352 27.6032 26.4705 30.4776 21.7094C30.4851 21.6983 30.4925 21.6873 30.5 21.68C30.5075 21.691 30.5149 21.702 30.5224 21.7094C33.3968 26.4741 36.2712 31.2389 39.1456 36H41.1178C43.6902 31.2757 45.5282 27.2683 46.751 24.43C48.3056 20.8197 49.3309 18.0439 52.0189 11.9923C53.5437 8.56215 55.2251 4.96652 58.9048 1.74589C59.7511 1.00324 60.5042 0.462788 61 0.124548C58.4723 -0.147514 54.2073 -0.187955 50.6246 2.31943L50.6208 2.32311ZM30.5 5.72021C32.0099 7.31949 33.5235 8.91878 35.0334 10.5181C33.5422 12.1946 32.0248 14.0144 30.5 15.9593C28.9789 14.0144 27.4578 12.1946 25.9666 10.5181C27.4765 8.91878 28.9901 7.31949 30.5 5.72021Z" fill="url(#paint0_linear_251_9)"/>
<path d="M57.536 18.086L55.352 17.8V16.682H68.222L68.586 20.504H67.338L66.636 18.008L59.668 17.878V25.444L64.452 25.366L64.79 23.208H66.09V28.954H64.79L64.452 26.744L59.668 26.666V34.674L67.624 34.466L68.95 31.216L70.198 31.606L69.392 36H55.3V34.882L57.536 34.648V18.086ZM76.5008 18.086L74.3168 17.8V16.682H77.5668C78.1388 16.682 78.8754 16.6473 79.7768 16.578C80.6088 16.5087 81.2241 16.474 81.6228 16.474C83.8761 16.474 85.5054 16.8467 86.5108 17.592C87.5334 18.3373 88.0448 19.4207 88.0448 20.842C88.0448 22.0553 87.7068 23.1127 87.0308 24.014C86.3721 24.898 85.4274 25.4613 84.1968 25.704C85.8261 25.652 87.1001 26.042 88.0188 26.874C88.9548 27.706 89.4228 28.824 89.4228 30.228C89.4228 31.9613 88.8074 33.3827 87.5768 34.492C86.3634 35.6013 84.3701 36.156 81.5968 36.156C81.2674 36.156 80.7388 36.1387 80.0108 36.104C79.1094 36.0347 78.2601 36 77.4628 36H74.2648V34.882L76.5008 34.648V18.086ZM78.6328 25.262C78.9101 25.2793 79.4561 25.288 80.2708 25.288H81.8308C83.1481 25.288 84.1534 24.95 84.8468 24.274C85.5401 23.598 85.8868 22.6187 85.8868 21.336C85.8868 20.0707 85.5401 19.1433 84.8468 18.554C84.1708 17.9647 83.0008 17.67 81.3368 17.67C80.7128 17.67 80.0714 17.7047 79.4128 17.774C78.9968 17.8087 78.7368 17.826 78.6328 17.826V25.262ZM78.6328 34.7C79.0834 34.8387 80.0628 34.908 81.5708 34.908C83.5121 34.908 84.9161 34.544 85.7828 33.816C86.6494 33.0707 87.0828 32.0047 87.0828 30.618C87.0828 29.2313 86.7101 28.226 85.9648 27.602C85.2194 26.9607 84.0148 26.64 82.3508 26.64H80.4268C79.4908 26.64 78.8928 26.6487 78.6328 26.666V34.7ZM99.9495 36.286C99.0655 36.286 98.2855 36.208 97.6095 36.052C96.9335 35.896 96.1535 35.6793 95.2695 35.402C94.6802 35.2113 94.3248 35.1073 94.2035 35.09L94.4115 30.462H95.7635L96.1535 33.868C96.4828 34.18 97.0028 34.4487 97.7135 34.674C98.4415 34.8993 99.2302 35.012 100.08 35.012C101.484 35.012 102.558 34.6913 103.304 34.05C104.049 33.4087 104.422 32.5247 104.422 31.398C104.422 30.67 104.222 30.0547 103.824 29.552C103.442 29.0493 102.94 28.6247 102.316 28.278C101.709 27.9313 100.86 27.524 99.7675 27.056C98.7448 26.6227 97.8695 26.1893 97.1415 25.756C96.4308 25.3227 95.8068 24.742 95.2695 24.014C94.7322 23.2687 94.4635 22.3847 94.4635 21.362C94.4635 20.4087 94.7235 19.5593 95.2435 18.814C95.7635 18.0687 96.4828 17.4967 97.4015 17.098C98.3375 16.682 99.4035 16.474 100.6 16.474C101.328 16.474 101.969 16.5347 102.524 16.656C103.096 16.76 103.815 16.9333 104.682 17.176C105.15 17.3147 105.427 17.3927 105.514 17.41L105.358 21.674H104.058L103.59 18.45C103.382 18.2767 102.974 18.112 102.368 17.956C101.778 17.7827 101.146 17.696 100.47 17.696C99.1868 17.696 98.2075 17.9647 97.5315 18.502C96.8555 19.022 96.5175 19.802 96.5175 20.842C96.5175 21.5527 96.6995 22.1507 97.0635 22.636C97.4275 23.104 97.8955 23.5027 98.4675 23.832C99.0395 24.1613 99.9235 24.6033 101.12 25.158C102.368 25.7473 103.338 26.2587 104.032 26.692C104.742 27.108 105.358 27.6627 105.878 28.356C106.415 29.032 106.684 29.8553 106.684 30.826C106.684 31.7447 106.415 32.6287 105.878 33.478C105.34 34.31 104.56 34.986 103.538 35.506C102.515 36.026 101.319 36.286 99.9495 36.286ZM113.961 18.086L111.439 17.8V16.682H118.641V17.8L116.119 18.086V34.648L118.641 34.908V36H111.439V34.882L113.961 34.648V18.086ZM132.095 36.286C130.24 36.286 128.645 35.87 127.311 35.038C125.976 34.206 124.962 33.036 124.269 31.528C123.575 30.02 123.229 28.2607 123.229 26.25C123.229 24.3607 123.636 22.6707 124.451 21.18C125.265 19.6893 126.375 18.5367 127.779 17.722C129.183 16.89 130.751 16.474 132.485 16.474C133.369 16.474 134.218 16.5433 135.033 16.682C135.865 16.8207 136.532 16.9507 137.035 17.072C137.537 17.1933 137.849 17.2713 137.971 17.306L137.763 21.544H136.411L135.839 18.528C135.579 18.3027 135.111 18.112 134.435 17.956C133.759 17.8 132.935 17.722 131.965 17.722C130.769 17.722 129.694 18.0513 128.741 18.71C127.787 19.3513 127.033 20.296 126.479 21.544C125.941 22.792 125.673 24.2827 125.673 26.016C125.673 27.6453 125.907 29.1447 126.375 30.514C126.86 31.8833 127.588 32.984 128.559 33.816C129.529 34.6307 130.725 35.038 132.147 35.038C133.135 35.038 133.906 34.96 134.461 34.804C135.015 34.6307 135.483 34.388 135.865 34.076L136.905 31.632L138.179 31.814L137.529 35.298C137.113 35.3153 136.61 35.428 136.021 35.636C135.397 35.844 134.799 36 134.227 36.104C133.655 36.2253 132.944 36.286 132.095 36.286ZM144.871 18.086L142.739 17.8V16.682H149.265V17.8L147.003 18.086V25.392H156.935V18.086L154.777 17.8V16.682H161.225V17.8L159.093 18.086V34.648L161.225 34.882V36H154.751V34.882L156.935 34.648V26.77H147.003V34.648L149.291 34.882V36H142.661V34.882L144.871 34.648V18.086Z" fill="#DED6C7"/>
<defs>
<linearGradient id="paint0_linear_251_9" x1="1.14241" y1="3.41883" x2="43.0654" y2="45.6974" gradientUnits="userSpaceOnUse">
<stop stop-color="#E9AB72"/>
<stop offset="1" stop-color="#836040"/>
</linearGradient>
</defs>
</svg>
