<svg width="34" height="34" viewBox="0 0 34 34" fill="none" xmlns="http://www.w3.org/2000/svg">
<path fill-rule="evenodd" clip-rule="evenodd" d="M28.3333 5.6665C30.6806 5.6665 32.5833 7.5693 32.5833 9.9165V24.0832C32.5833 26.4304 30.6806 28.3332 28.3333 28.3332H5.66663C3.31942 28.3332 1.41663 26.4304 1.41663 24.0832V9.9165C1.41663 7.5693 3.31942 5.6665 5.66663 5.6665H28.3333ZM27.2749 8.49984H6.72513L16.1222 15.9185C16.6369 16.3249 17.363 16.3249 17.8779 15.9185L27.2749 8.49984ZM4.24996 10.1556V24.0832C4.24996 24.8656 4.88423 25.4998 5.66663 25.4998H28.3333C29.1157 25.4998 29.75 24.8656 29.75 24.0832V10.1557L19.6334 18.1424C18.0894 19.3614 15.9105 19.3614 14.3665 18.1424L4.24996 10.1556Z" fill="#E9AB72"/>
</svg>
