<svg width="30" height="30" viewBox="0 0 30 30" fill="none" xmlns="http://www.w3.org/2000/svg">
<path fill-rule="evenodd" clip-rule="evenodd" d="M22.5918 29.8837C19.6789 29.1539 13.7157 27.0964 8.30963 21.6903C2.90358 16.2843 0.846126 10.3211 0.116309 7.40822C-0.303098 5.73424 0.452155 4.11889 1.73277 3.20416L5.09 0.806134C7.05435 -0.59696 9.787 -0.120841 11.1611 1.86392L13.2746 4.9169C14.1718 6.21284 13.8624 7.98904 12.5797 8.90518L10.8944 10.109C11.1495 11.0846 11.9428 13.0882 14.4273 15.5727C16.9118 18.0572 18.9154 18.8504 19.891 19.1055L21.0948 17.4201C22.011 16.1377 23.7872 15.8281 25.0831 16.7253L28.1361 18.8389C30.1208 20.2131 30.597 22.9456 29.1938 24.9099L26.7958 28.2672C25.8811 29.5478 24.2658 30.3031 22.5918 29.8837ZM10.3489 19.6511C15.2651 24.5673 20.6903 26.4342 23.2926 27.0863C23.673 27.1814 24.1328 27.0336 24.4491 26.591L26.8472 23.2337C27.3148 22.579 27.1562 21.6681 26.4945 21.21L23.4416 19.0964L22.1497 20.9051C21.6218 21.6442 20.6455 22.2239 19.5086 21.9786C18.0897 21.6725 15.4668 20.6906 12.3881 17.6119C9.30939 14.5332 8.32755 11.9103 8.02139 10.4914C7.77612 9.35457 8.35584 8.37824 9.09496 7.85029L10.9035 6.55845L8.78993 3.50547C8.33191 2.84387 7.42102 2.68517 6.76624 3.15287L3.40901 5.5509C2.96628 5.86713 2.81846 6.32697 2.91376 6.70733C3.56578 9.3097 5.43268 14.7349 10.3489 19.6511Z" fill="#E9AB72"/>
</svg>
