<svg width="20" height="20" viewBox="0 0 20 20" fill="none" xmlns="http://www.w3.org/2000/svg">
<g clip-path="url(#clip0_29_14)">
<path d="M19.9665 7.58656C19.8921 7.36437 19.6996 7.2025 19.4681 7.16687L13.3199 6.2275L10.5653 0.359375C10.4621 0.14 10.2415 0 9.99932 0C9.75714 0 9.53682 0.14 9.43339 0.359375L6.6787 6.2275L0.530573 7.16719C0.299011 7.2025 0.106823 7.36469 0.0321359 7.58687C-0.0422391 7.80875 0.0136984 8.05375 0.177448 8.22156L4.64432 12.8019L3.5887 19.2719C3.54995 19.5081 3.64964 19.7459 3.84557 19.8834C3.95307 19.9594 4.07901 19.9978 4.20526 19.9978C4.30901 19.9978 4.41339 19.9716 4.50776 19.9197L9.99901 16.8825L15.4903 19.9197C15.5846 19.9716 15.689 19.9978 15.7928 19.9978C15.919 19.9978 16.0453 19.9594 16.1524 19.8834C16.3484 19.7459 16.4481 19.5081 16.4093 19.2719L15.3537 12.8019L19.8206 8.22156C19.9846 8.05344 20.0409 7.80844 19.9665 7.58656Z" fill="#C9A14A"/>
</g>
<defs>
<clipPath id="clip0_29_14">
<rect width="20" height="20" fill="white"/>
</clipPath>
</defs>
</svg>
