<svg width="36" height="36" viewBox="0 0 36 36" fill="none" xmlns="http://www.w3.org/2000/svg">
<path d="M9.021 12.0092C9.19241 10.6536 10.9542 8.81121 12.3523 9.01565L12.3501 9.01341C13.7108 9.27198 14.7879 11.6139 15.3953 12.667C15.8256 13.431 15.5462 14.2052 15.1448 14.5318C14.6033 14.9682 13.7565 15.5705 13.9341 16.1751C14.25 17.25 18 21 19.8444 22.0661C20.5425 22.4696 21.0488 21.4053 21.4811 20.8601C21.7952 20.4407 22.5699 20.19 23.3322 20.604C24.4707 21.267 25.5432 22.0376 26.535 22.905C27.0303 23.319 27.1466 23.9309 26.8034 24.5775C26.1989 25.7165 24.4505 27.2184 23.1813 26.9132C20.9646 26.3802 12 22.905 9.1205 12.837C8.95856 12.3607 8.99933 12.1807 9.021 12.0092Z" fill="#E9AB72"/>
<path fill-rule="evenodd" clip-rule="evenodd" d="M18 34.5C16.1646 34.5 15.1491 34.3031 13.5 33.75L10.3416 35.3292C8.34693 36.3266 6 34.8761 6 32.6459V29.25C2.76982 26.238 1.5 22.7651 1.5 18C1.5 8.88731 8.8873 1.5 18 1.5C27.1126 1.5 34.5 8.88731 34.5 18C34.5 27.1127 27.1126 34.5 18 34.5ZM9 27.9455L8.04592 27.0558C5.5363 24.7158 4.5 22.0997 4.5 18C4.5 10.5442 10.5442 4.5 18 4.5C25.4559 4.5 31.5 10.5442 31.5 18C31.5 25.4559 25.4559 31.5 18 31.5C16.5214 31.5 15.828 31.3665 14.4539 30.9057L13.2727 30.5096L9 32.6459V27.9455Z" fill="#E9AB72"/>
</svg>
